<svg xmlns="http://www.w3.org/2000/svg" viewBox="0 0 132 132"><defs><style>.cls-1{isolation:isolate;}.cls-2{fill:#40495e;}.cls-3{fill:#e0e0e0;}.cls-3,.cls-4{fill-rule:evenodd;}.cls-4{fill:#8fa498;}</style></defs><title>SimplyNotesLogo</title><g id="Abgerundetes_Rechteck_6" data-name="Abgerundetes Rechteck 6" class="cls-1"><g id="Abgerundetes_Rechteck_6-2" data-name="Abgerundetes Rechteck 6"><rect class="cls-2" width="132" height="132"/></g></g><g id="Abgerundetes_Rechteck_4" data-name="Abgerundetes Rechteck 4" class="cls-1"><g id="Abgerundetes_Rechteck_4-2" data-name="Abgerundetes Rechteck 4"><path class="cls-3" d="M106.8,18H62.4a7.2,7.2,0,0,0-7.2,7.2V114h51.6a7.2,7.2,0,0,0,7.2-7.2V25.2A7.2,7.2,0,0,0,106.8,18Z"/></g></g><g id="Abgerundetes_Rechteck_5" data-name="Abgerundetes Rechteck 5" class="cls-1"><g id="Abgerundetes_Rechteck_5-2" data-name="Abgerundetes Rechteck 5"><path class="cls-3" d="M39.6,22.8H20.4A2.4,2.4,0,0,0,18,25.2v7.2a2.4,2.4,0,0,0,2.4,2.4H42V25.2A2.4,2.4,0,0,0,39.6,22.8Z"/></g></g><g id="Abgerundetes_Rechteck_5_Kopie" data-name="Abgerundetes Rechteck 5 Kopie" class="cls-1"><g id="Abgerundetes_Rechteck_5_Kopie-2" data-name="Abgerundetes Rechteck 5 Kopie"><path class="cls-4" d="M39.6,46.8H20.4A2.4,2.4,0,0,0,18,49.2v7.2a2.4,2.4,0,0,0,2.4,2.4H42V49.2A2.4,2.4,0,0,0,39.6,46.8Z"/></g></g><g id="Abgerundetes_Rechteck_5_Kopie_2" data-name="Abgerundetes Rechteck 5 Kopie 2" class="cls-1"><g id="Abgerundetes_Rechteck_5_Kopie_2-2" data-name="Abgerundetes Rechteck 5 Kopie 2"><path class="cls-3" d="M39.6,70.8H20.4A2.4,2.4,0,0,0,18,73.2v7.2a2.4,2.4,0,0,0,2.4,2.4H42V73.2A2.4,2.4,0,0,0,39.6,70.8Z"/></g></g><g id="Abgerundetes_Rechteck_5_Kopie_3" data-name="Abgerundetes Rechteck 5 Kopie 3" class="cls-1"><g id="Abgerundetes_Rechteck_5_Kopie_3-2" data-name="Abgerundetes Rechteck 5 Kopie 3"><path class="cls-3" d="M39.6,94.8H20.4A2.4,2.4,0,0,0,18,97.2v7.2a2.4,2.4,0,0,0,2.4,2.4H42V97.2A2.4,2.4,0,0,0,39.6,94.8Z"/></g></g></svg>